<svg width="170" height="170" viewBox="0 0 170 170" fill="none" xmlns="http://www.w3.org/2000/svg">
<rect x="83.8786" width="119.761" height="119.761" rx="18.4945" transform="rotate(44.458 83.8786 0)" fill="#0A7992"/>
<path d="M112.857 70.087L101.235 107.716H93.3322L86.2557 84.395C86.1179 84.0334 85.9888 83.6374 85.8683 83.2069C85.7478 82.7593 85.6272 82.2944 85.5067 81.8123C85.3862 82.2944 85.2657 82.7593 85.1451 83.2069C85.0246 83.6374 84.8955 84.0334 84.7577 84.395L77.5779 107.716H69.675L58.053 70.087H65.3878C66.1454 70.087 66.7738 70.2592 67.2731 70.6036C67.7896 70.9479 68.1254 71.4042 68.2804 71.9724L73.4457 91.6006C73.6006 92.2204 73.7556 92.9005 73.9106 93.6409C74.0655 94.364 74.2205 95.1216 74.3754 95.9136C74.6854 94.2952 75.0641 92.8575 75.5118 91.6006L81.6069 71.9724C81.7618 71.4903 82.089 71.0598 82.5883 70.681C83.1048 70.285 83.7247 70.087 84.4478 70.087H87.0305C87.7881 70.087 88.3993 70.2678 88.8642 70.6294C89.329 70.9737 89.682 71.4214 89.9231 71.9724L95.9665 91.6006C96.4141 92.8058 96.7929 94.1746 97.1029 95.707C97.2406 94.9322 97.3783 94.2091 97.5161 93.5376C97.671 92.8489 97.826 92.2032 97.981 91.6006L103.146 71.9724C103.284 71.4731 103.611 71.034 104.128 70.6552C104.644 70.2764 105.264 70.087 105.987 70.087H112.857Z" fill="white"/>
<rect x="88.7738" y="65.3472" width="27.1252" height="39.4549" fill="#0A7992"/>
<path fill-rule="evenodd" clip-rule="evenodd" d="M117.304 94.0312C117.226 93.984 117.147 93.9364 117.065 93.8883C116.755 93.6811 116.377 93.4962 115.934 93.3334C115.505 93.1559 114.994 93.0079 114.402 92.8896C113.825 92.7712 113.145 92.712 112.36 92.712C111.118 92.712 109.978 92.9413 108.943 93.4C107.922 93.8587 107.034 94.5319 106.279 95.4196C105.54 96.2925 104.963 97.3726 104.548 98.6598C104.149 99.9323 103.949 101.39 103.949 103.032C103.949 103.126 103.95 103.219 103.951 103.312L117.304 94.0312ZM96.9159 108.201C96.4855 106.579 96.2703 104.856 96.2703 103.032C96.2703 101.476 96.4334 100.004 96.7598 98.6141L95.6591 99.4403C94.8697 99.9978 94.0465 100.639 93.1896 101.363C92.3571 102.082 91.5176 102.86 90.6711 103.697C91.0608 102.559 91.4067 101.456 91.7088 100.388C92.0206 99.3048 92.2764 98.2905 92.4765 97.345L97.5931 76.0025C97.6972 75.3951 97.6474 74.8132 97.4436 74.2566C97.2494 73.6853 96.8282 73.1862 96.1799 72.7594L90.1682 68.8017L81.8757 109.501L88.6388 113.954L96.9159 108.201ZM112.863 86.5254C113.906 86.55 114.893 86.6592 115.823 86.853C116.903 87.0601 117.909 87.356 118.841 87.7407C118.925 87.774 119.008 87.808 119.091 87.8426L116.69 86.2622C116.071 85.8548 115.437 85.6798 114.786 85.7374C114.16 85.79 113.631 85.9692 113.197 86.2751L112.863 86.5254Z" fill="#2FD3F8"/>
<rect x="41.9111" y="69.3545" width="19.7274" height="4.93186" transform="rotate(-21.5552 41.9111 69.3545)" fill="#2FD3F8"/>
<rect x="50.5718" y="57.9563" width="19.7274" height="4.93186" transform="rotate(67.9405 50.5718 57.9563)" fill="#2FD3F8"/>
<path d="M117.33 95.9183C117.089 96.211 116.857 96.4435 116.633 96.6156C116.409 96.7878 116.091 96.8739 115.677 96.8739C115.281 96.8739 114.92 96.7792 114.593 96.5898C114.283 96.4004 113.93 96.1938 113.534 95.97C113.138 95.7289 112.673 95.5137 112.139 95.3243C111.605 95.1349 110.943 95.0402 110.151 95.0402C109.169 95.0402 108.317 95.221 107.594 95.5826C106.888 95.9441 106.302 96.4607 105.837 97.1322C105.373 97.8037 105.028 98.6301 104.804 99.6115C104.581 100.576 104.469 101.669 104.469 102.892C104.469 105.457 104.959 107.428 105.941 108.806C106.939 110.183 108.308 110.872 110.047 110.872C110.977 110.872 111.709 110.76 112.242 110.536C112.793 110.295 113.258 110.037 113.637 109.761C114.016 109.469 114.36 109.202 114.67 108.961C114.997 108.72 115.402 108.599 115.884 108.599C116.521 108.599 117.003 108.832 117.33 109.297L119.655 112.163C118.828 113.11 117.959 113.885 117.046 114.488C116.134 115.073 115.195 115.538 114.231 115.882C113.284 116.209 112.329 116.433 111.364 116.554C110.4 116.692 109.462 116.76 108.549 116.76C106.914 116.76 105.347 116.45 103.849 115.831C102.368 115.211 101.06 114.315 99.9232 113.145C98.804 111.957 97.9087 110.502 97.2372 108.78C96.583 107.058 96.2558 105.095 96.2558 102.892C96.2558 100.963 96.5399 99.1639 97.1081 97.4937C97.6935 95.8064 98.5458 94.3515 99.6649 93.129C100.801 91.8894 102.196 90.9166 103.849 90.2106C105.519 89.5047 107.447 89.1517 109.634 89.1517C111.735 89.1517 113.577 89.4875 115.161 90.159C116.745 90.8305 118.174 91.8119 119.448 93.1032L117.33 95.9183Z" fill="#F5F5F5"/>
</svg>
